<svg id="SvgjsSvg1221" xmlns="http://www.w3.org/2000/svg" version="1.1" xmlns:xlink="http://www.w3.org/1999/xlink" xmlns:svgjs="http://svgjs.com/svgjs" width="506" height="340"><defs id="SvgjsDefs1222"><marker id="SvgjsMarker1245" markerWidth="14" markerHeight="10" refX="10" refY="5" viewBox="0 0 14 10" orient="auto" markerUnits="userSpaceOnUse" stroke-dasharray="0,0"><path id="SvgjsPath1246" d="M0 0L14 5L0 10L0 0 " fill="#323232" stroke="#323232" stroke-width="1"></path></marker><marker id="SvgjsMarker1261" markerWidth="14" markerHeight="10" refX="10" refY="5" viewBox="0 0 14 10" orient="auto" markerUnits="userSpaceOnUse" stroke-dasharray="0,0"><path id="SvgjsPath1262" d="M0 0L14 5L0 10L0 0 " fill="#323232" stroke="#323232" stroke-width="1"></path></marker><marker id="SvgjsMarker1269" markerWidth="14" markerHeight="10" refX="10" refY="5" viewBox="0 0 14 10" orient="auto" markerUnits="userSpaceOnUse" stroke-dasharray="0,0"><path id="SvgjsPath1270" d="M0 0L14 5L0 10L0 0 " fill="#323232" stroke="#323232" stroke-width="1"></path></marker><marker id="SvgjsMarker1297" markerWidth="14" markerHeight="10" refX="10" refY="5" viewBox="0 0 14 10" orient="auto" markerUnits="userSpaceOnUse" stroke-dasharray="0,0"><path id="SvgjsPath1298" d="M0 0L14 5L0 10L0 0 " fill="#323232" stroke="#323232" stroke-width="1"></path></marker><marker id="SvgjsMarker1313" markerWidth="14" markerHeight="10" refX="10" refY="5" viewBox="0 0 14 10" orient="auto" markerUnits="userSpaceOnUse" stroke-dasharray="0,0"><path id="SvgjsPath1314" d="M0 0L14 5L0 10L0 0 " fill="#323232" stroke="#323232" stroke-width="1"></path></marker><marker id="SvgjsMarker1321" markerWidth="14" markerHeight="10" refX="10" refY="5" viewBox="0 0 14 10" orient="auto" markerUnits="userSpaceOnUse" stroke-dasharray="0,0"><path id="SvgjsPath1322" d="M0 0L14 5L0 10L0 0 " fill="#323232" stroke="#323232" stroke-width="1"></path></marker></defs><g id="SvgjsG1223" transform="translate(211,48)"><path id="SvgjsPath1224" d="M0 0L68 0L84 16L84 108L0 108L0 0Z " stroke="none" fill-opacity="1" fill="#f5f5f5"></path><path id="SvgjsPath1225" d="M68 0L68 16L84 16Z " stroke="none" fill-opacity="1" fill="#cdcdcd"></path><path id="SvgjsPath1226" d="M0 0L68 0L84 16L84 108L0 108L0 0Z " stroke="none" fill="none"></path><g id="SvgjsG1227"><text id="SvgjsText1228" font-family="微软雅黑" text-anchor="middle" font-size="14px" width="64px" fill="#323232" font-weight="400" align="middle" lineHeight="125%" font-style="" opacity="1" y="25.75" transform="rotate(0)"><tspan id="SvgjsTspan1229" dy="17" x="42"><tspan id="SvgjsTspan1230" style="text-decoration:;">共享内存</tspan></tspan><tspan id="SvgjsTspan1231" dy="17" x="42"><tspan id="SvgjsTspan1232" style="text-decoration:;">文件</tspan></tspan><tspan id="SvgjsTspan1233" dy="17" x="42"><tspan id="SvgjsTspan1234" style="text-decoration:;">话题1</tspan></tspan></text></g></g><g id="SvgjsG1235" transform="translate(25,67)"><path id="SvgjsPath1236" d="M0 0L100 0L100 70L0 70Z " stroke="rgba(50,50,50,1)" stroke-width="2" fill-opacity="1" fill="#ffffff"></path><g id="SvgjsG1237"><text id="SvgjsText1238" font-family="微软雅黑" text-anchor="middle" font-size="13px" width="80px" fill="#323232" font-weight="400" align="middle" lineHeight="125%" font-style="" opacity="1" y="16.375" transform="rotate(0)"><tspan id="SvgjsTspan1239" dy="16" x="50"><tspan id="SvgjsTspan1240" style="text-decoration:;">发布者</tspan></tspan><tspan id="SvgjsTspan1241" dy="16" x="50"><tspan id="SvgjsTspan1242" style="text-decoration:;">话题1</tspan></tspan></text></g></g><g id="SvgjsG1243"><path id="SvgjsPath1244" d="M126 102L168 102L168 102L211 102 " stroke="#323232" stroke-width="2" fill="none" marker-end="url(#SvgjsMarker1245)"></path><rect id="SvgjsRect1247" width="61" height="16" x="137.5" y="107" fill="#ffffff"></rect><text id="SvgjsText1248" font-family="微软雅黑" text-anchor="middle" font-size="13px" width="61px" fill="#323232" font-weight="400" align="top" lineHeight="16px" font-style="" opacity="1" y="104.375" transform="rotate(0)"><tspan id="SvgjsTspan1249" dy="16" x="168"><tspan id="SvgjsTspan1250" style="text-decoration:;">1.写入消息</tspan></tspan></text></g><g id="SvgjsG1251" transform="translate(381,67)"><path id="SvgjsPath1252" d="M0 0L100 0L100 70L0 70Z " stroke="rgba(50,50,50,1)" stroke-width="2" fill-opacity="1" fill="#ffffff"></path><g id="SvgjsG1253"><text id="SvgjsText1254" font-family="微软雅黑" text-anchor="middle" font-size="13px" width="80px" fill="#323232" font-weight="400" align="middle" lineHeight="125%" font-style="" opacity="1" y="16.375" transform="rotate(0)"><tspan id="SvgjsTspan1255" dy="16" x="50"><tspan id="SvgjsTspan1256" style="text-decoration:;">订阅者</tspan></tspan><tspan id="SvgjsTspan1257" dy="16" x="50"><tspan id="SvgjsTspan1258" style="text-decoration:;">话题1</tspan></tspan></text></g></g><g id="SvgjsG1259"><path id="SvgjsPath1260" d="M75 66L75 37L431 37L431 63.400000000000006 " stroke="#323232" stroke-width="2" fill="none" marker-end="url(#SvgjsMarker1261)"></path><rect id="SvgjsRect1263" width="128" height="16" x="206" y="16" fill="#ffffff"></rect><text id="SvgjsText1264" font-family="微软雅黑" text-anchor="middle" font-size="13px" width="128px" fill="#323232" font-weight="400" align="top" lineHeight="16px" font-style="" opacity="1" y="13.375" transform="rotate(0)"><tspan id="SvgjsTspan1265" dy="16" x="270"><tspan id="SvgjsTspan1266" style="text-decoration:;">2.通知订阅者接收消息</tspan></tspan></text></g><g id="SvgjsG1267"><path id="SvgjsPath1268" d="M295 102L338 102L338 102L377.4 102 " stroke="#323232" stroke-width="2" fill="none" marker-end="url(#SvgjsMarker1269)"></path><rect id="SvgjsRect1271" width="63" height="16" x="301.5" y="107" fill="#ffffff"></rect><text id="SvgjsText1272" font-family="微软雅黑" text-anchor="middle" font-size="13px" width="63px" fill="#323232" font-weight="400" align="top" lineHeight="16px" font-style="" opacity="1" y="104.375" transform="rotate(0)"><tspan id="SvgjsTspan1273" dy="16" x="333"><tspan id="SvgjsTspan1274" style="text-decoration:;">3.接收消息</tspan></tspan></text></g><g id="SvgjsG1275" transform="translate(211,207)"><path id="SvgjsPath1276" d="M0 0L68 0L84 16L84 108L0 108L0 0Z " stroke="none" fill-opacity="1" fill="#f5f5f5"></path><path id="SvgjsPath1277" d="M68 0L68 16L84 16Z " stroke="none" fill-opacity="1" fill="#cdcdcd"></path><path id="SvgjsPath1278" d="M0 0L68 0L84 16L84 108L0 108L0 0Z " stroke="none" fill="none"></path><g id="SvgjsG1279"><text id="SvgjsText1280" font-family="微软雅黑" text-anchor="middle" font-size="14px" width="64px" fill="#323232" font-weight="400" align="middle" lineHeight="125%" font-style="" opacity="1" y="25.75" transform="rotate(0)"><tspan id="SvgjsTspan1281" dy="17" x="42"><tspan id="SvgjsTspan1282" style="text-decoration:;">共享内存</tspan></tspan><tspan id="SvgjsTspan1283" dy="17" x="42"><tspan id="SvgjsTspan1284" style="text-decoration:;">文件</tspan></tspan><tspan id="SvgjsTspan1285" dy="17" x="42"><tspan id="SvgjsTspan1286" style="text-decoration:;">话题2</tspan></tspan></text></g></g><g id="SvgjsG1287" transform="translate(25,226)"><path id="SvgjsPath1288" d="M0 0L100 0L100 70L0 70Z " stroke="rgba(50,50,50,1)" stroke-width="2" fill-opacity="1" fill="#ffffff"></path><g id="SvgjsG1289"><text id="SvgjsText1290" font-family="微软雅黑" text-anchor="middle" font-size="13px" width="80px" fill="#323232" font-weight="400" align="middle" lineHeight="125%" font-style="" opacity="1" y="16.375" transform="rotate(0)"><tspan id="SvgjsTspan1291" dy="16" x="50"><tspan id="SvgjsTspan1292" style="text-decoration:;">发布者</tspan></tspan><tspan id="SvgjsTspan1293" dy="16" x="50"><tspan id="SvgjsTspan1294" style="text-decoration:;">话题2</tspan></tspan></text></g></g><g id="SvgjsG1295"><path id="SvgjsPath1296" d="M126 261L168 261L168 261L211 261 " stroke="#323232" stroke-width="2" fill="none" marker-end="url(#SvgjsMarker1297)"></path><rect id="SvgjsRect1299" width="61" height="16" x="138" y="253" fill="#ffffff"></rect><text id="SvgjsText1300" font-family="微软雅黑" text-anchor="middle" font-size="13px" width="61px" fill="#323232" font-weight="400" align="top" lineHeight="16px" font-style="" opacity="1" y="250.375" transform="rotate(0)"><tspan id="SvgjsTspan1301" dy="16" x="168.5"><tspan id="SvgjsTspan1302" style="text-decoration:;">1.写入消息</tspan></tspan></text></g><g id="SvgjsG1303" transform="translate(381,226)"><path id="SvgjsPath1304" d="M0 0L100 0L100 70L0 70Z " stroke="rgba(50,50,50,1)" stroke-width="2" fill-opacity="1" fill="#ffffff"></path><g id="SvgjsG1305"><text id="SvgjsText1306" font-family="微软雅黑" text-anchor="middle" font-size="13px" width="80px" fill="#323232" font-weight="400" align="middle" lineHeight="125%" font-style="" opacity="1" y="16.375" transform="rotate(0)"><tspan id="SvgjsTspan1307" dy="16" x="50"><tspan id="SvgjsTspan1308" style="text-decoration:;">订阅者</tspan></tspan><tspan id="SvgjsTspan1309" dy="16" x="50"><tspan id="SvgjsTspan1310" style="text-decoration:;">话题2</tspan></tspan></text></g></g><g id="SvgjsG1311"><path id="SvgjsPath1312" d="M75 225L75 196L431 196L431 222.39999999999998 " stroke="#323232" stroke-width="2" fill="none" marker-end="url(#SvgjsMarker1313)"></path><rect id="SvgjsRect1315" width="128" height="16" x="187.7" y="188" fill="#ffffff"></rect><text id="SvgjsText1316" font-family="微软雅黑" text-anchor="middle" font-size="13px" width="128px" fill="#323232" font-weight="400" align="top" lineHeight="16px" font-style="" opacity="1" y="185.375" transform="rotate(0)"><tspan id="SvgjsTspan1317" dy="16" x="251.7"><tspan id="SvgjsTspan1318" style="text-decoration:;">2.通知订阅者接收消息</tspan></tspan></text></g><g id="SvgjsG1319"><path id="SvgjsPath1320" d="M295 261L338 261L338 261L377.4 261 " stroke="#323232" stroke-width="2" fill="none" marker-end="url(#SvgjsMarker1321)"></path><rect id="SvgjsRect1323" width="63" height="16" x="304.7" y="253" fill="#ffffff"></rect><text id="SvgjsText1324" font-family="微软雅黑" text-anchor="middle" font-size="13px" width="63px" fill="#323232" font-weight="400" align="top" lineHeight="16px" font-style="" opacity="1" y="250.375" transform="rotate(0)"><tspan id="SvgjsTspan1325" dy="16" x="336.2"><tspan id="SvgjsTspan1326" style="text-decoration:;">3.接收消息</tspan></tspan></text></g></svg>